<svg width="22" height="22" viewBox="0 0 22 22" fill="none" xmlns="http://www.w3.org/2000/svg">
<path d="M21.0833 10.9954C20.5792 10.9954 20.1667 11.408 20.1667 11.9124V19.2488C20.1667 19.7532 19.7542 20.1658 19.25 20.1658H2.75C2.24583 20.1658 1.83333 19.7532 1.83333 19.2488V11.9124C1.83333 11.408 1.42083 10.9954 0.916667 10.9954C0.4125 10.9954 0 11.408 0 11.9124V19.2488C0 20.7619 1.2375 21.9999 2.75 21.9999H19.25C20.7625 21.9999 22 20.7619 22 19.2488V11.9124C22 11.408 21.5967 10.9954 21.0833 10.9954Z" fill="white"/>
<path d="M10.3583 15.6723C10.4408 15.7549 10.5417 15.8282 10.6608 15.8741C10.7708 15.92 10.89 15.9475 11.0092 15.9475C11.1283 15.9475 11.2475 15.92 11.3575 15.8741C11.4675 15.8282 11.5683 15.7641 11.66 15.6723L16.3166 11.0138C16.6741 10.6561 16.6741 10.0784 16.3166 9.72071C15.9591 9.36307 15.3817 9.36307 15.0242 9.72071L11.9258 12.8203V0.917048C11.9258 0.412672 11.5133 0 11.0092 0C10.505 0 10.0925 0.412672 10.0925 0.917048V12.8112L6.99416 9.71154C6.63666 9.35389 6.05916 9.35389 5.70166 9.71154C5.34416 10.0692 5.34416 10.6469 5.70166 11.0046L10.3583 15.6723Z" fill="white"/>
</svg>
