<svg width="21" height="24" viewBox="0 0 21 24" fill="none" xmlns="http://www.w3.org/2000/svg">
<path d="M20.25 16.5785L18.9487 14.9723V11.5754C18.9487 7.91999 16.732 4.75385 13.6449 3.55385C13.6897 3.35077 13.7077 3.13846 13.7077 2.92615C13.7077 1.31077 12.4333 0 10.8718 0C9.31025 0 8.03589 1.31077 8.03589 2.92615C8.03589 3.13846 8.05385 3.34155 8.09872 3.54462C7.03077 3.93232 6.05256 4.56923 5.21794 5.40923C3.65641 6.97846 2.79487 9.08309 2.79487 11.3354V14.9723L1.49359 16.5785C1.17949 16.9754 1 17.4738 1 17.9908V20.0584C1 20.5661 1.40385 20.9815 1.89744 20.9815H7.27308C7.62308 22.7077 9.10384 24 10.8718 24C12.6487 24 14.1295 22.7077 14.4705 20.9815H19.8461C20.3397 20.9815 20.7436 20.5661 20.7436 20.0584V17.9908C20.7436 17.4738 20.5641 16.9754 20.25 16.5785ZM10.8718 1.84615C11.4461 1.84615 11.9128 2.32615 11.9128 2.92615C11.9128 2.99077 11.9038 3.04615 11.8949 3.10154C11.6077 3.05538 11.3205 3.03692 11.0244 3.02769C10.6295 3.01846 10.2346 3.04615 9.84871 3.10154C9.83974 3.04615 9.83076 2.99077 9.83076 2.92615C9.83076 2.32615 10.2974 1.84615 10.8718 1.84615ZM10.8718 22.1538C10.1 22.1538 9.42692 21.6738 9.14872 20.9815H12.5949C12.3167 21.6738 11.6436 22.1538 10.8718 22.1538ZM18.9487 19.1354H2.79487V17.9908C2.79487 17.9077 2.82179 17.8246 2.87564 17.76L4.38334 15.9046C4.51795 15.7384 4.58974 15.5262 4.58974 15.3138V11.3354C4.58974 9.58155 5.26282 7.94769 6.47436 6.72C7.21026 5.98153 8.08077 5.44615 9.04103 5.15077C9.51667 4.99384 10.0103 4.91077 10.5218 4.89231C10.6744 4.87385 10.8269 4.87384 10.9885 4.87384C11.0603 4.87384 11.141 4.87385 11.2128 4.89231C11.7244 4.91077 12.2179 5.00308 12.6846 5.16001C15.2603 6.00001 17.1538 8.57537 17.1538 11.5754V15.3138C17.1538 15.5262 17.2256 15.7384 17.3602 15.9046L18.8679 17.76C18.9218 17.8246 18.9487 17.9077 18.9487 17.9908V19.1354Z" fill="#3A3A3A"/>
<ellipse cx="17.3333" cy="5.42857" rx="3.33333" ry="3.42857" fill="#FF664D"/>
</svg>
