<svg width="40" height="36" viewBox="0 0 40 36" fill="none" xmlns="http://www.w3.org/2000/svg">
<path d="M35.99 6.54001H29.2L27.86 2.14C27.47 0.869999 26.31 0 24.99 0H15C13.68 0 12.52 0.869999 12.13 2.14L10.79 6.54001H4C1.79 6.54001 0 8.33001 0 10.54V32C0 34.21 1.79 36 4 36H36C38.21 36 40 34.21 40 32V10.54C39.99 8.33001 38.2 6.54001 35.99 6.54001ZM19.99 31.27C14.47 31.27 9.99001 26.79 9.99001 21.27C9.99001 15.75 14.47 11.27 19.99 11.27C25.51 11.27 29.99 15.75 29.99 21.27C29.99 26.79 25.51 31.27 19.99 31.27Z" fill="white"/>
<path d="M19.99 27.8699C23.6351 27.8699 26.59 24.915 26.59 21.2699C26.59 17.6248 23.6351 14.6699 19.99 14.6699C16.3449 14.6699 13.39 17.6248 13.39 21.2699C13.39 24.915 16.3449 27.8699 19.99 27.8699Z" fill="white"/>
</svg>
