<svg width="26" height="26" viewBox="0 0 26 26" fill="none" xmlns="http://www.w3.org/2000/svg">
<path d="M25.547 22.4531L16.8722 11.1647L20.1862 8.84641C20.901 9.23641 21.789 9.21474 22.5038 8.72724L22.5255 8.7164C23.5218 8.02306 23.7709 6.64723 23.067 5.63973L19.7638 0.938072C19.0599 -0.058595 17.6845 -0.296928 16.6881 0.396405L16.6665 0.407232C15.9625 0.905566 15.6376 1.73973 15.7568 2.5414L6.54046 8.98723C5.82569 8.59723 4.93763 8.6189 4.22285 9.1064L4.20121 9.11724C3.20485 9.81058 2.95576 11.1864 3.65971 12.1939L6.96283 16.8956C7.66678 17.8922 9.04219 18.1306 10.0385 17.4372L10.0602 17.4264C10.7641 16.9281 11.0891 16.0939 10.9699 15.2922L14.2839 12.9739L21.9407 24.9772C22.6121 26.0389 24.0417 26.3206 25.0705 25.5947C26.0885 24.8797 26.3051 23.4497 25.547 22.4531ZM10.2335 13.6347C10.1902 13.6672 10.136 13.6889 10.0819 13.6889C9.99522 13.6889 9.90859 13.6456 9.86527 13.5697L7.68845 10.4714C7.60181 10.3522 7.6343 10.1789 7.75343 10.0922C7.87256 10.0056 8.04583 10.0381 8.13247 10.1572L10.3093 13.2556C10.3851 13.3856 10.3526 13.5481 10.2335 13.6347ZM16.634 3.96056C16.7531 3.8739 16.9264 3.9064 17.013 4.02556L19.1899 7.1239C19.2765 7.24306 19.244 7.4164 19.1249 7.50307C19.0816 7.53557 19.0274 7.55724 18.9733 7.55724C18.8866 7.55724 18.8 7.51391 18.7566 7.43807L16.5798 4.33974C16.4824 4.20974 16.504 4.04723 16.634 3.96056Z" fill="#A5A9B6"/>
<path d="M11.3056 22.9081V22.789C11.3056 21.164 9.98438 19.8423 8.34906 19.8423H5.29502C3.6597 19.8423 2.33845 21.164 2.33845 22.789V22.9081C1.16881 23.2223 0.259088 24.1648 0.00999937 25.3456C-0.0549803 25.6815 0.204938 25.9956 0.551497 25.9956H13.0926C13.4391 25.9956 13.6991 25.6815 13.6341 25.3456C13.385 24.154 12.4753 23.2115 11.3056 22.9081ZM8.54401 23.3306H5.11091C4.95929 23.3306 4.84017 23.2115 4.84017 23.0598C4.84017 22.9081 4.95929 22.789 5.11091 22.789H8.54401C8.69563 22.789 8.81476 22.9081 8.81476 23.0598C8.81476 23.2115 8.69563 23.3306 8.54401 23.3306Z" fill="#A5A9B6"/>
</svg>
