<svg width="74" height="48" viewBox="0 0 74 48" fill="none" xmlns="http://www.w3.org/2000/svg">
<path d="M0 12.4899C1.78 12.2499 3.56 12.0099 5.34 11.7699C6.79 11.5699 8.23 11.3599 9.76 11.1499C9.76 11.6699 9.76 12.1599 9.76 12.7299C11.57 12.4699 13.31 12.2299 15.04 11.9899C16.78 11.7499 18.52 11.4999 20.31 11.2499C20.31 13.0499 20.31 14.7999 20.31 16.5999C18.67 16.8399 17.03 17.0699 15.34 17.3199C15.34 19.5799 15.34 21.8299 15.34 24.1499C17.84 23.7999 20.33 23.4499 22.84 23.0899C22.86 23.2599 22.89 23.3799 22.89 23.4999C22.89 24.9999 22.89 26.4999 22.9 28.0099C22.9 28.3399 22.84 28.4899 22.46 28.5399C15.67 29.4899 8.88 30.4599 2.09 31.4299C1.39 31.5299 0.7 31.6399 0 31.7499C0 25.3199 0 18.8999 0 12.4899ZM9.75 16.5099C8.34 16.7099 6.97 16.8999 5.61 17.0899C5.61 19.9299 5.61 22.7099 5.61 25.5299C7.03 25.3199 8.39 25.1299 9.75 24.9299C9.75 22.0899 9.75 19.3199 9.75 16.5099Z" fill="#3A3A3A"/>
<path d="M19.94 47.9901C19.16 47.8001 18.34 47.7001 17.59 47.4001C14.49 46.1601 12.75 43.4601 12.9 40.1301C13.06 36.5301 14.82 33.8101 17.78 31.8601C20.14 30.3001 22.73 29.7601 25.47 30.6001C30.28 32.0701 31.81 36.8901 30.19 41.0301C28.73 44.7801 25.91 47.0201 21.97 47.8301C21.67 47.8901 21.36 47.9401 21.05 47.9901C20.68 47.9901 20.31 47.9901 19.94 47.9901ZM18.26 39.6301C18.28 41.4301 19.6 42.7001 21.39 42.6301C23.15 42.5601 24.85 41.1901 25.27 39.4901C25.72 37.6901 24.76 36.0201 23.08 35.6601C20.7 35.1501 18.23 37.1801 18.26 39.6301Z" fill="#3A3A3A"/>
<path d="M38.18 26.29C38.18 19.88 38.18 13.54 38.18 7.13001C41.39 6.68001 44.59 6.23001 47.88 5.76001C47.88 6.31001 47.88 6.80001 47.88 7.34001C51.41 6.84001 54.86 6.36001 58.35 5.86001C58.35 7.63001 58.35 9.38001 58.35 11.2C56.72 11.43 55.06 11.67 53.39 11.91C53.39 14.2 53.39 16.44 53.39 18.73C55.89 18.38 58.36 18.03 60.88 17.67C60.88 19.47 60.88 21.22 60.88 23.05C53.35 24.13 45.8 25.2 38.18 26.29ZM43.69 20.1C44.95 19.92 46.14 19.74 47.33 19.6C47.74 19.55 47.88 19.41 47.88 18.98C47.86 16.54 47.87 14.09 47.87 11.65C47.87 11.49 47.85 11.33 47.83 11.11C46.42 11.31 45.05 11.51 43.69 11.7C43.69 14.52 43.69 17.27 43.69 20.1Z" fill="#3A3A3A"/>
<path d="M68.75 33.1001C68.62 35.8201 67.14 38.4301 64.49 40.4101C62.16 42.1501 59.57 42.9001 56.69 42.3001C53.3 41.5901 50.95 38.6801 50.94 35.1201C50.93 31.6101 52.52 28.8601 55.31 26.7901C57.51 25.1601 59.99 24.4401 62.7 24.9901C66.51 25.7601 68.78 28.7101 68.75 33.1001ZM60.35 30.1701C58.54 30.1701 56.83 31.5101 56.39 33.2601C55.77 35.7401 57.74 37.7201 60.19 37.0701C61.85 36.6301 62.92 35.5501 63.3 33.8701C63.76 31.8701 62.39 30.1801 60.35 30.1701Z" fill="#3A3A3A"/>
<path d="M31.03 5.3501C31.03 8.3301 31.03 11.2501 31.03 14.2501C32.61 14.0301 34.12 13.8201 35.67 13.6001C35.67 15.5001 35.67 17.3601 35.67 19.2901C34.16 19.5101 32.64 19.7301 31.03 19.9601C31.03 20.1801 31.03 20.3901 31.03 20.6001C31.03 23.0101 31.02 25.4201 31.04 27.8301C31.04 28.2201 30.94 28.3601 30.53 28.4101C28.79 28.6301 27.05 28.8901 25.26 29.1501C25.26 21.4701 25.26 13.8401 25.26 6.1701C27.16 5.9001 29.06 5.6301 31.03 5.3501Z" fill="#3A3A3A"/>
<path d="M63.28 23.74C63.28 16.08 63.28 8.47 63.28 0.809999C65.19 0.539999 67.09 0.27 69.04 0C69.04 2.97 69.04 5.87 69.04 8.87C70.61 8.66 72.12 8.45 73.66 8.24C73.66 10.14 73.66 11.99 73.66 13.9C72.58 14.06 71.5 14.22 70.43 14.37C69.02 14.56 69.02 14.56 69.02 15.95C69.02 18.06 69.02 20.18 69.02 22.29C69.02 22.49 69.02 22.69 69.02 22.93C67.08 23.19 65.2 23.46 63.28 23.74Z" fill="#3A3A3A"/>
</svg>
