<svg width="30" height="30" viewBox="0 0 30 30" fill="none" xmlns="http://www.w3.org/2000/svg">
<path d="M27 2.91C27 2.858 27 2.81467 26.9913 2.77133C26.9826 2.728 26.9826 2.67601 26.9653 2.63268C26.948 2.58068 26.9306 2.53734 26.9133 2.49401C26.9046 2.46801 26.896 2.44201 26.8786 2.41601C26.8699 2.39868 26.8526 2.39001 26.8439 2.37267C26.8179 2.32934 26.7832 2.29467 26.7485 2.26C26.7138 2.22534 26.6792 2.19067 26.6358 2.16467C26.6185 2.156 26.6098 2.13867 26.5924 2.13001C26.5664 2.11267 26.5404 2.11267 26.5144 2.09533C26.471 2.06933 26.419 2.05201 26.3756 2.03467C26.3323 2.02601 26.2889 2.01734 26.2456 2.00868C26.1935 2.00001 26.1502 2 26.0981 2C26.0461 2 26.0027 2.00867 25.9594 2.026C25.9334 2.03467 25.8987 2.026 25.8727 2.04334L1.59206 10.1293C1.26253 10.242 1.02838 10.5367 1.00236 10.892C0.976347 11.2473 1.16714 11.568 1.47932 11.7327L12.0154 16.9933L17.2791 27.5233C17.4265 27.818 17.73 28 18.0508 28C18.0682 28 18.0942 28 18.1116 28C18.4584 27.974 18.7619 27.74 18.8747 27.4107L26.9653 3.14401C26.974 3.11801 26.974 3.08333 26.9827 3.05733C26.9913 3.00533 27 2.962 27 2.91ZM22.933 4.85134L12.4837 15.2947L4.12416 11.1173L22.933 4.85134ZM17.8861 24.88L13.7064 16.5253L24.1557 6.08201L17.8861 24.88Z" fill="#A5A9B6"/>
</svg>
