<svg width="28" height="28" viewBox="0 0 28 28" fill="none" xmlns="http://www.w3.org/2000/svg">
<path d="M26.6452 12.6452H15.3548V1.35484C15.3548 0.605161 14.7497 0 14 0C13.2503 0 12.6452 0.605161 12.6452 1.35484V12.6452H1.35484C0.605161 12.6452 0 13.2503 0 14C0 14.7497 0.605161 15.3548 1.35484 15.3548H12.6452V26.6452C12.6452 27.3948 13.2503 28 14 28C14.7497 28 15.3548 27.3948 15.3548 26.6452V15.3548H26.6452C27.3948 15.3548 28 14.7497 28 14C28 13.2503 27.3948 12.6452 26.6452 12.6452Z" fill="#A5A9B6"/>
</svg>
