<svg width="120" height="120" viewBox="0 0 120 120" fill="none" xmlns="http://www.w3.org/2000/svg">
<path d="M120 60C120 76.99 112.94 92.32 101.6 103.24C100.35 104.44 99.05 105.59 97.69 106.68C97.5 106.84 97.31 106.99 97.12 107.14C96.24 107.84 95.33 108.51 94.41 109.16C84.66 115.99 72.8 120 60 120C47.2 120 35.34 115.99 25.59 109.16C24.67 108.52 23.76 107.85 22.88 107.15C22.69 107 22.5 106.85 22.31 106.69C20.95 105.6 19.65 104.45 18.4 103.25C7.06 92.32 0 76.99 0 60C0 26.86 26.86 0 60 0C93.14 0 120 26.86 120 60Z" fill="#C5D0E1"/>
<path d="M94.41 109.16C84.66 115.99 72.8 120 60 120C47.2 120 35.34 115.99 25.59 109.16C26.15 108.49 26.73 107.83 27.33 107.19C35.5 98.5001 47.12 93.0701 60 93.0701C72.39 93.0701 83.6 98.0901 91.72 106.21C92.04 106.53 92.36 106.86 92.67 107.19C93.27 107.83 93.85 108.48 94.41 109.16Z" fill="#EBEEF3"/>
<path d="M60 90.0401C79.7221 90.0401 95.71 74.0522 95.71 54.3301C95.71 34.608 79.7221 18.6201 60 18.6201C40.2779 18.6201 24.29 34.608 24.29 54.3301C24.29 74.0522 40.2779 90.0401 60 90.0401Z" fill="#EBEEF3"/>
<path d="M48.88 66.7801C53.348 66.7801 56.97 63.1581 56.97 58.6901C56.97 54.2221 53.348 50.6001 48.88 50.6001C44.412 50.6001 40.79 54.2221 40.79 58.6901C40.79 63.1581 44.412 66.7801 48.88 66.7801Z" fill="white"/>
<path d="M50.66 64.5702C53.5208 64.5702 55.84 62.251 55.84 59.3902C55.84 56.5294 53.5208 54.2102 50.66 54.2102C47.7991 54.2102 45.48 56.5294 45.48 59.3902C45.48 62.251 47.7991 64.5702 50.66 64.5702Z" fill="#C5D0E1"/>
<path d="M71.12 66.7801C75.588 66.7801 79.21 63.1581 79.21 58.6901C79.21 54.2221 75.588 50.6001 71.12 50.6001C66.652 50.6001 63.03 54.2221 63.03 58.6901C63.03 63.1581 66.652 66.7801 71.12 66.7801Z" fill="white"/>
<path d="M69.34 64.5702C72.2008 64.5702 74.52 62.251 74.52 59.3902C74.52 56.5294 72.2008 54.2102 69.34 54.2102C66.4791 54.2102 64.16 56.5294 64.16 59.3902C64.16 62.251 66.4791 64.5702 69.34 64.5702Z" fill="#C5D0E1"/>
<path d="M60 65.77C61.2482 65.77 62.26 64.7582 62.26 63.51C62.26 62.2618 61.2482 61.25 60 61.25C58.7518 61.25 57.74 62.2618 57.74 63.51C57.74 64.7582 58.7518 65.77 60 65.77Z" fill="#C5D0E1"/>
<path d="M54.2599 70.6201C55.3799 77.0501 64.6199 77.0501 65.7399 70.6201" stroke="#C5D0E1" stroke-width="2" stroke-miterlimit="10" stroke-linecap="round" stroke-linejoin="round"/>
<path d="M24.29 69.97C29.0397 69.97 32.89 66.1197 32.89 61.37C32.89 56.6204 29.0397 52.77 24.29 52.77C19.5404 52.77 15.69 56.6204 15.69 61.37C15.69 66.1197 19.5404 69.97 24.29 69.97Z" fill="#EBEEF3"/>
<path d="M95.71 69.97C100.46 69.97 104.31 66.1197 104.31 61.37C104.31 56.6204 100.46 52.77 95.71 52.77C90.9603 52.77 87.11 56.6204 87.11 61.37C87.11 66.1197 90.9603 69.97 95.71 69.97Z" fill="#EBEEF3"/>
<rect x="55" y="88" width="11" height="8" fill="#EBEEF3"/>
</svg>
