<svg width="20" height="18" viewBox="0 0 20 18" fill="none" xmlns="http://www.w3.org/2000/svg">
<path d="M17.995 3.27H14.6L13.93 1.07C13.735 0.435 13.155 0 12.495 0H7.5C6.84 0 6.26 0.435 6.065 1.07L5.39501 3.27H2C0.895 3.27 0 4.16501 0 5.27001V16C0 17.105 0.895 18 2 18H18C19.105 18 20 17.105 20 16V5.27001C19.995 4.16501 19.1 3.27 17.995 3.27ZM9.995 15.635C7.235 15.635 4.995 13.395 4.995 10.635C4.995 7.87501 7.235 5.635 9.995 5.635C12.755 5.635 14.995 7.87501 14.995 10.635C14.995 13.395 12.755 15.635 9.995 15.635Z" fill="#A5A9B6"/>
<path d="M9.99532 13.935C11.8179 13.935 13.2953 12.4575 13.2953 10.635C13.2953 8.81242 11.8179 7.33496 9.99532 7.33496C8.17278 7.33496 6.69531 8.81242 6.69531 10.635C6.69531 12.4575 8.17278 13.935 9.99532 13.935Z" fill="#A5A9B6"/>
</svg>
