<svg width="26" height="26" viewBox="0 0 26 26" fill="none" xmlns="http://www.w3.org/2000/svg">
<path d="M20 14.61C20 18.34 15.97 21.37 10.92 21.53V23C10.92 23.42 10.43 23.65 10.09 23.4L6.97998 21.05C3.46998 20.03 1 17.53 1 14.61C1 12 2.97999 9.72004 5.89999 8.54004C7.01999 11.41 10.41 13.56 14.57 13.84V14.84C14.57 15.22 14.79 15.56 15.13 15.73C15.28 15.8 15.43 15.84 15.59 15.84C15.81 15.84 16.02 15.77 16.2 15.63L19.24 13.34C19.43 13.28 19.61 13.22 19.79 13.16C19.93 13.63 20 14.11 20 14.61Z" fill="#A5A9B6"/>
<path d="M15.5 0C10.53 0 6.48999 2.89 6.48999 6.44C6.48999 9.89 10.27 12.71 15.09 12.87C15.36 12.88 15.57 13.1 15.57 13.37V14.84L18.72 12.49C18.76 12.45 18.82 12.42 18.88 12.41C22.29 11.41 24.5 9.07 24.5 6.44C24.5 2.89 20.46 0 15.5 0ZM11.56 7.57001C11.01 7.57001 10.57 7.13 10.57 6.58C10.57 6.03 11.01 5.59001 11.56 5.59001C12.11 5.59001 12.55 6.03 12.55 6.58C12.55 7.13 12.11 7.57001 11.56 7.57001ZM15.5 7.57001C14.95 7.57001 14.51 7.13 14.51 6.58C14.51 6.03 14.95 5.59001 15.5 5.59001C16.05 5.59001 16.49 6.03 16.49 6.58C16.49 7.13 16.04 7.57001 15.5 7.57001ZM19.43 7.57001C18.88 7.57001 18.44 7.13 18.44 6.58C18.44 6.03 18.88 5.59001 19.43 5.59001C19.98 5.59001 20.42 6.03 20.42 6.58C20.42 7.13 19.98 7.57001 19.43 7.57001Z" fill="#A5A9B6"/>
</svg>
