<svg width="24" height="22" viewBox="0 0 24 22" fill="none" xmlns="http://www.w3.org/2000/svg">
<path d="M19.0184 16.2715V11.7023C19.0184 7.84381 15.8699 4.70459 12 4.70459C8.13011 4.70459 4.9816 7.84381 4.9816 11.7023V16.2715C4.05656 16.813 3.43704 17.8115 3.43704 18.9453V21.1538C3.43704 21.6277 3.81894 22 4.2857 22H19.7143C20.181 22 20.5629 21.6277 20.5629 21.1538V18.9453C20.5629 17.8115 19.9434 16.813 19.0184 16.2715ZM6.67891 11.7023C6.67891 8.78304 9.06363 6.3969 12 6.3969C14.9363 6.3969 17.3211 8.78304 17.3211 11.7023V15.8569H14.4187V13.623C14.4187 12.2946 13.3324 11.2115 12 11.2115C10.6676 11.2115 9.58131 12.2946 9.58131 13.623V15.8569H6.67891V11.7023V11.7023ZM12.7213 15.8569H11.2786V13.623C11.2786 13.2253 11.6011 12.9038 12 12.9038C12.3989 12.9038 12.7213 13.2253 12.7213 13.623V15.8569V15.8569ZM18.8656 20.3077H5.13435V18.9453C5.13435 18.7676 5.1683 18.6069 5.22771 18.4546C5.4229 17.9215 5.94058 17.5492 6.53464 17.5492H10.43H13.57H17.4653C18.0594 17.5492 18.5771 17.9215 18.7723 18.4546C18.8317 18.6069 18.8656 18.7676 18.8656 18.9453V20.3077V20.3077Z" fill="#646778"/>
<path d="M12 3.29154C12.4668 3.29154 12.8487 2.91077 12.8487 2.44538V0.846153C12.8487 0.380769 12.4668 0 12 0C11.5333 0 11.1514 0.380769 11.1514 0.846153V2.44538C11.1514 2.91077 11.5333 3.29154 12 3.29154Z" fill="#646778"/>
<path d="M4.65062 5.82987C4.82035 5.9991 5.03252 6.07526 5.25317 6.07526C5.47382 6.07526 5.68598 5.99064 5.85571 5.82987C6.18669 5.49987 6.18669 4.9668 5.85571 4.6368L4.727 3.51142C4.39602 3.18142 3.86137 3.18142 3.5304 3.51142C3.19942 3.84142 3.19942 4.3745 3.5304 4.7045L4.65062 5.82987Z" fill="#646778"/>
<path d="M2.45262 11.1184H0.848656C0.381895 11.1184 0 11.4992 0 11.9646C0 12.4299 0.381895 12.8107 0.848656 12.8107H2.45262C2.91938 12.8107 3.30127 12.4299 3.30127 11.9646C3.30127 11.4992 2.91938 11.1184 2.45262 11.1184Z" fill="#646778"/>
<path d="M23.1513 11.1184H21.5474C21.0806 11.1184 20.6987 11.4992 20.6987 11.9646C20.6987 12.4299 21.0806 12.8107 21.5474 12.8107H23.1513C23.6181 12.8107 24 12.4299 24 11.9646C24 11.4992 23.6181 11.1184 23.1513 11.1184Z" fill="#646778"/>
<path d="M18.7468 6.07526C18.9675 6.07526 19.1796 5.99064 19.3494 5.82987L20.4781 4.7045C20.809 4.3745 20.809 3.84142 20.4781 3.51142C20.1471 3.18142 19.6124 3.18142 19.2815 3.51142L18.1527 4.6368C17.8218 4.9668 17.8218 5.49987 18.1527 5.82987C18.314 5.9991 18.5346 6.07526 18.7468 6.07526Z" fill="#646778"/>
</svg>
