<svg width="16" height="16" viewBox="0 0 16 16" fill="none" xmlns="http://www.w3.org/2000/svg">
<path d="M9.24409 8.00111L15.7223 1.5148C16.0689 1.1678 16.0689 0.607257 15.7223 0.260253C15.3757 -0.086751 14.8159 -0.086751 14.4693 0.260253L7.99111 6.74656L1.51291 0.260253C1.16634 -0.086751 0.606498 -0.086751 0.259928 0.260253C-0.0866426 0.607257 -0.0866426 1.1678 0.259928 1.5148L6.73813 8.00111L0.259928 14.4874C-0.0866426 14.8344 -0.0866426 15.395 0.259928 15.742C0.437656 15.9199 0.659816 16 0.890863 16C1.12191 16 1.34407 15.911 1.5218 15.742L8 9.25566L14.4782 15.742C14.6559 15.9199 14.8781 16 15.1091 16C15.3402 16 15.5623 15.911 15.7401 15.742C16.0866 15.395 16.0866 14.8344 15.7401 14.4874L9.24409 8.00111Z" fill="#3A3A3A"/>
</svg>
