<svg width="18" height="18" viewBox="0 0 18 18" fill="none" xmlns="http://www.w3.org/2000/svg">
<path d="M9 0C4.03 0 0 4.03 0 9C0 13.97 4.03 18 9 18C13.97 18 18 13.97 18 9C18 4.03 13.97 0 9 0ZM12.38 11.67C12.58 11.87 12.58 12.18 12.38 12.38C12.28 12.48 12.15 12.53 12.03 12.53C11.91 12.53 11.77 12.48 11.68 12.38L9.00999 9.71001L6.34 12.38C6.24 12.48 6.10999 12.53 5.98999 12.53C5.86999 12.53 5.73 12.48 5.64 12.38C5.44 12.18 5.44 11.87 5.64 11.67L8.31 9L5.64 6.33C5.44 6.13 5.44 5.82001 5.64 5.62001C5.84 5.42001 6.14999 5.42001 6.34999 5.62001L9.01999 8.29001L11.69 5.62001C11.89 5.42001 12.2 5.42001 12.4 5.62001C12.6 5.82001 12.6 6.13 12.4 6.33L9.73 9L12.38 11.67Z" fill="#C5D0E1"/>
</svg>
