<svg width="28" height="28" viewBox="0 0 28 28" fill="none" xmlns="http://www.w3.org/2000/svg">
<circle cx="14" cy="14" r="14" fill="#E9F3FF"/>
<path d="M17.369 12.6H15.6839C15.5435 12.6 15.403 12.5298 15.3328 12.3894L14.8413 10.8447C14.7711 10.5638 14.2796 10.5638 14.2094 10.8447L13.7179 12.3894C13.6477 12.5298 13.5073 12.6 13.3668 12.6H11.6817C11.3306 12.6 11.1902 13.0213 11.4711 13.232L12.8051 14.215C12.9456 14.2852 12.9456 14.4256 12.9456 14.566L12.4541 16.1107C12.3838 16.3916 12.7349 16.6724 13.0158 16.4618L14.3498 15.4788C14.4903 15.4086 14.6307 15.4086 14.7711 15.4788L16.1052 16.4618C16.386 16.6724 16.7371 16.3916 16.6669 16.1107L16.1754 14.566C16.1052 14.4256 16.1754 14.2852 16.3158 14.215L17.6499 13.232C17.7903 13.0213 17.6499 12.6 17.369 12.6Z" fill="#4D71FF"/>
<path d="M8.17107 20.113C7.74979 20.113 7.39871 19.9726 7.11786 19.762C7.11786 20.5343 7.74979 21.3769 8.52214 21.3769H20.3883C21.1607 21.3769 21.7926 20.5343 21.7926 19.762C21.5117 19.9726 21.1607 20.113 20.7394 20.113H8.17107Z" fill="#FDB024"/>
<path d="M20.0372 6.983H18.9138V6.63193C18.9138 6.28086 18.6329 6 18.2819 6C17.9308 6 17.6499 6.28086 17.6499 6.63193V6.983H15.1222V6.63193C15.1222 6.28086 14.8414 6 14.4903 6C14.1392 6 13.8584 6.28086 13.8584 6.63193V6.983H11.3307V6.63193C11.3307 6.28086 11.0498 6 10.6988 6C10.3477 6 10.0668 6.28086 10.0668 6.63193V6.983H8.9434C7.9604 6.983 7.18805 7.75535 7.18805 8.73835V17.5853C7.18805 18.5683 7.9604 19.3407 8.9434 19.3407H20.1776C21.1606 19.3407 21.933 18.5683 21.933 17.5853V8.73835C21.7926 7.75535 21.0202 6.983 20.0372 6.983ZM20.3883 17.5853C20.3883 17.796 20.2479 17.9364 20.0372 17.9364H8.80297C8.59233 17.9364 8.4519 17.796 8.4519 17.5853V8.73835C8.4519 8.52771 8.59233 8.38728 8.80297 8.38728H9.9264V8.73835C9.9264 9.08942 10.2073 9.37028 10.5583 9.37028C10.9094 9.37028 11.1903 9.08942 11.1903 8.73835V8.38728H13.718V8.73835C13.718 9.08942 13.9988 9.37028 14.3499 9.37028C14.701 9.37028 14.9818 9.08942 14.9818 8.73835V8.38728H17.5095V8.73835C17.5095 9.08942 17.7904 9.37028 18.1414 9.37028C18.4925 9.37028 18.7734 9.08942 18.7734 8.73835V8.38728H19.8968C20.1074 8.38728 20.2479 8.52771 20.2479 8.73835V17.5853H20.3883Z" fill="#4D71FF"/>
</svg>
