<svg width="14" height="14" viewBox="0 0 14 14" fill="none" xmlns="http://www.w3.org/2000/svg">
<path d="M7 14C10.866 14 14 10.866 14 7C14 3.13401 10.866 0 7 0C3.13401 0 0 3.13401 0 7C0 10.866 3.13401 14 7 14Z" fill="#3A3A3A"/>
<path d="M7.70997 6.99996L10.38 4.32996C10.58 4.12996 10.58 3.81997 10.38 3.61997C10.18 3.41997 9.86997 3.41997 9.66997 3.61997L6.99998 6.28997L4.32998 3.61997C4.12998 3.41997 3.81997 3.41997 3.61997 3.61997C3.41997 3.81997 3.41997 4.12996 3.61997 4.32996L6.28997 6.99996L3.61997 9.66996C3.41997 9.86996 3.41997 10.18 3.61997 10.38C3.71997 10.48 3.84998 10.53 3.96998 10.53C4.08998 10.53 4.22997 10.48 4.31997 10.38L6.98997 7.70997L9.65996 10.38C9.75996 10.48 9.88997 10.53 10.01 10.53C10.13 10.53 10.27 10.48 10.36 10.38C10.56 10.18 10.56 9.86996 10.36 9.66996L7.70997 6.99996Z" fill="white"/>
</svg>
