<svg width="13" height="12" viewBox="0 0 13 12" fill="none" xmlns="http://www.w3.org/2000/svg">
<path d="M1.50157 5.46052C1.42585 5.46039 1.35085 5.4752 1.28087 5.50412C1.21089 5.53303 1.14731 5.57548 1.09377 5.62902C1.04023 5.68256 0.997784 5.74614 0.968869 5.81612C0.939954 5.8861 0.925137 5.9611 0.925268 6.03682C0.926263 6.18935 0.9873 6.33536 1.09516 6.44322C1.20302 6.55109 1.34903 6.61212 1.50157 6.61312L5.80687 6.61312L5.80687 10.9184C5.80786 11.071 5.8689 11.217 5.97676 11.3248C6.08463 11.4327 6.23063 11.4937 6.38317 11.4947C6.45889 11.4948 6.53389 11.48 6.60387 11.4511C6.67385 11.4222 6.73743 11.3798 6.79097 11.3262C6.84451 11.2727 6.88695 11.2091 6.91587 11.1391C6.94479 11.0691 6.9596 10.9941 6.95947 10.9184L6.95947 6.61312L11.2648 6.61312C11.4176 6.61312 11.5642 6.5524 11.6723 6.44432C11.7258 6.39081 11.7682 6.32728 11.7972 6.25736C11.8262 6.18744 11.8411 6.1125 11.8411 6.03682C11.8411 5.96114 11.8262 5.8862 11.7972 5.81628C11.7682 5.74636 11.7258 5.68282 11.6723 5.62931C11.5642 5.52123 11.4176 5.46052 11.2648 5.46052L6.95947 5.46052L6.95947 1.15522C6.95947 1.00237 6.89875 0.855788 6.79068 0.747711C6.6826 0.639633 6.53602 0.578916 6.38317 0.578916C6.23033 0.578916 6.08374 0.639633 5.97567 0.74771C5.86759 0.855788 5.80687 1.00237 5.80687 1.15522L5.80687 5.46052L1.50157 5.46052Z" fill="#4D71FF" stroke="#4D71FF"/>
</svg>
