<svg width="25" height="25" viewBox="0 0 25 25" fill="none" xmlns="http://www.w3.org/2000/svg">
<path fill-rule="evenodd" clip-rule="evenodd" d="M6.27247 5.73497C4.63681 7.18889 3.48999 9.40214 3.48999 12.5001C3.48999 13.3285 2.81842 14.0001 1.98999 14.0001C1.16156 14.0001 0.48999 13.3285 0.48999 12.5001C0.48999 8.58807 1.97192 5.54382 4.27938 3.49274C6.55924 1.4662 9.55663 0.485107 12.505 0.485107C15.4533 0.485107 18.4507 1.4662 20.7306 3.49274C23.0381 5.54382 24.52 8.58807 24.52 12.5001C24.52 13.3285 23.8484 14.0001 23.02 14.0001C22.1916 14.0001 21.52 13.3285 21.52 12.5001C21.52 9.40214 20.3732 7.18889 18.7375 5.73497C17.0742 4.25651 14.8141 3.48511 12.505 3.48511C10.1958 3.48511 7.93574 4.25651 6.27247 5.73497Z" fill="url(#paint0_linear_1416_7445)"/>
<defs>
<linearGradient id="paint0_linear_1416_7445" x1="1.99976" y1="12.4998" x2="13" y2="12.5" gradientUnits="userSpaceOnUse">
<stop stop-color="#4D71FF"/>
<stop offset="1" stop-color="#4D71FF" stop-opacity="0"/>
</linearGradient>
</defs>
</svg>
