<svg width="28" height="28" viewBox="0 0 28 28" fill="none" xmlns="http://www.w3.org/2000/svg">
<circle cx="14" cy="14" r="14" fill="#E9F3FF"/>
<path d="M16.0182 6H9.18182C7.94545 6 7 6.94545 7 8.18182V19.8182C7 21.0545 7.94545 22 9.18182 22H16.0909C17.3273 22 18.2727 21.0545 18.2727 19.8182V16.1818C18.2727 15.7455 17.9818 15.4545 17.5455 15.4545C17.1091 15.4545 16.8182 15.7455 16.8182 16.1818V19.8182C16.8182 20.2545 16.4545 20.5455 16.0909 20.5455H9.18182C8.74545 20.5455 8.45455 20.2545 8.45455 19.8182V8.18182C8.45455 7.74545 8.74545 7.45455 9.18182 7.45455H16.0909C16.4545 7.45455 16.8182 7.74545 16.8182 8.18182V11.8182C16.8182 12.2545 17.1091 12.5455 17.5455 12.5455C17.9818 12.5455 18.2727 12.2545 18.2727 11.8182V8.18182C18.2 6.94545 17.2545 6 16.0182 6Z" fill="#4D71FF"/>
<path d="M23 13.2727H14.1272L15.5091 12.1091C15.8 11.8909 15.8727 11.3818 15.5818 11.0909C15.3636 10.8 14.8545 10.7273 14.5636 11.0182L11.5818 13.4182C11.5818 13.4182 11.5091 13.4182 11.5091 13.4909V13.5637L11.4363 13.6364V13.7091V13.7818V13.8546C11.4363 13.8546 11.4363 13.8546 11.4363 13.9273C11.4363 14 11.4363 13.9273 11.4363 14V14.0727V14.1455V14.2182C11.4363 14.2182 11.4363 14.2909 11.5091 14.2909V14.3637C11.5091 14.3637 11.5091 14.4364 11.5818 14.4364L14.5636 16.8364C14.7091 16.9091 14.8545 16.9818 15 16.9818C15.2182 16.9818 15.4363 16.9091 15.5818 16.6909C15.8 16.4 15.8 15.8909 15.5091 15.6727L14.1272 14.5091H23C23.4363 14.5091 23.7272 14.2182 23.7272 13.7818C23.7272 13.3455 23.3636 13.2727 23 13.2727Z" fill="#4D71FF"/>
</svg>
