<svg width="28" height="28" viewBox="0 0 28 28" fill="none" xmlns="http://www.w3.org/2000/svg">
<circle cx="14" cy="14" r="14" fill="#E9F3FF"/>
<path d="M16.0909 6H9.18182C7.94545 6 7 6.94545 7 8.18182V19.8182C7 21.0545 7.94545 22 9.18182 22H16.0909C17.3273 22 18.2727 21.0545 18.2727 19.8182V16.1818C18.2727 15.7455 17.9818 15.4545 17.5455 15.4545C17.1091 15.4545 16.8182 15.7455 16.8182 16.1818V19.8182C16.8182 20.2545 16.4545 20.5455 16.0909 20.5455H9.18182C8.81818 20.5455 8.45455 20.2545 8.45455 19.8182V8.18182C8.45455 7.74545 8.74545 7.45455 9.18182 7.45455H16.0909C16.4545 7.45455 16.8182 7.74545 16.8182 8.18182V11.8182C16.8182 12.2545 17.1091 12.5455 17.5455 12.5455C17.9818 12.5455 18.2727 12.2545 18.2727 11.8182V8.18182C18.2727 6.94545 17.3273 6 16.0909 6Z" fill="#4D71FF"/>
<path d="M23.7272 14.2181V14.1454V14.0726C23.7272 14.0726 23.7272 14.0726 23.7272 13.9999C23.7272 13.9272 23.7272 13.9999 23.7272 13.9272V13.8545V13.7817V13.709C23.7272 13.709 23.7272 13.6363 23.6545 13.6363V13.5636C23.6545 13.5636 23.6545 13.4908 23.5818 13.4908L20.6 11.0908C20.3091 10.8726 19.8 10.8726 19.5818 11.1636C19.3636 11.4545 19.3636 11.9636 19.6545 12.1817L21.0363 13.3454H12.1636C11.7272 13.3454 11.4363 13.6363 11.4363 14.0726C11.4363 14.509 11.7272 14.7999 12.1636 14.7999H21.0363L19.6545 15.9636C19.3636 16.1817 19.2909 16.6908 19.5818 16.9817C19.7272 17.1272 19.9454 17.2726 20.1636 17.2726C20.3091 17.2726 20.4545 17.1999 20.6 17.1272L23.5818 14.7272L23.6545 14.6545V14.5817C23.6545 14.3636 23.7272 14.2908 23.7272 14.2181C23.7272 14.2908 23.7272 14.2181 23.7272 14.2181Z" fill="#4D71FF"/>
</svg>
