<svg width="26" height="26" viewBox="0 0 26 26" fill="none" xmlns="http://www.w3.org/2000/svg">
<g filter="url(#filter0_d_1735_8459)">
<path fill-rule="evenodd" clip-rule="evenodd" d="M13 22C17.9706 22 22 17.9706 22 13C22 8.02944 17.9706 4 13 4C8.02944 4 4 8.02944 4 13C4 17.9706 8.02944 22 13 22ZM14.3876 8.94623L10.3396 12.9979L14.3931 17.0552C14.6097 17.2719 14.6097 17.6221 14.3931 17.8388C14.2821 17.9444 14.1433 18 13.9989 18C13.8545 18 13.7157 17.95 13.6046 17.8388L9.16242 13.3925C8.94586 13.1758 8.94586 12.8256 9.16242 12.6089L13.6046 8.16257C13.8212 7.94581 14.171 7.94581 14.3876 8.16257C14.6041 8.37932 14.6041 8.72947 14.3876 8.94623Z" fill="white" fill-opacity="0.4"/>
</g>
<defs>
<filter id="filter0_d_1735_8459" x="0" y="0" width="26" height="26" filterUnits="userSpaceOnUse" color-interpolation-filters="sRGB">
<feFlood flood-opacity="0" result="BackgroundImageFix"/>
<feColorMatrix in="SourceAlpha" type="matrix" values="0 0 0 0 0 0 0 0 0 0 0 0 0 0 0 0 0 0 127 0" result="hardAlpha"/>
<feOffset/>
<feGaussianBlur stdDeviation="2"/>
<feComposite in2="hardAlpha" operator="out"/>
<feColorMatrix type="matrix" values="0 0 0 0 0 0 0 0 0 0 0 0 0 0 0 0 0 0 0.3 0"/>
<feBlend mode="normal" in2="BackgroundImageFix" result="effect1_dropShadow_1735_8459"/>
<feBlend mode="normal" in="SourceGraphic" in2="effect1_dropShadow_1735_8459" result="shape"/>
</filter>
</defs>
</svg>
