<svg width="28" height="28" viewBox="0 0 28 28" fill="none" xmlns="http://www.w3.org/2000/svg">
<circle cx="14" cy="14" r="14" fill="#E9F3FF"/>
<path d="M15.4727 8.71167H13.8606V16.4696H15.4727V8.71167Z" fill="#FDB024"/>
<path d="M4.11108 12.5523C4.11108 14.703 5.79998 16.4696 7.79594 16.4696H8.48686V20.7711C8.48686 21.7697 9.10099 22.5378 9.86867 22.5378C10.6363 22.5378 11.2505 21.7697 11.2505 20.7711V16.4696H12.9394V8.71167H7.79594C5.79998 8.71167 4.11108 10.4783 4.11108 12.5523Z" fill="#4D71FF"/>
<path d="M19.8485 6.4841L16.3172 8.71164V16.4696L19.8485 18.6972C20.3859 18.9276 21 18.5435 21 17.929V7.25221C21 6.63772 20.3859 6.25366 19.8485 6.4841Z" fill="#4D71FF"/>
</svg>
