<svg width="18" height="18" viewBox="0 0 18 18" fill="none" xmlns="http://www.w3.org/2000/svg">
<path d="M9 0C4.03 0 0 4.03 0 9C0 13.97 4.03 18 9 18C13.97 18 18 13.97 18 9C18 4.03 13.97 0 9 0ZM12.8 6.28L8.19 12.33C8.18 12.34 8.16001 12.35 8.15001 12.36C8.13001 12.38 8.12001 12.4 8.10001 12.42C8.09001 12.43 8.08001 12.43 8.06001 12.43C7.98001 12.48 7.89001 12.52 7.79001 12.52C7.69001 12.52 7.61 12.48 7.52 12.43C7.51 12.42 7.49001 12.43 7.48001 12.42C7.46001 12.4 7.45001 12.38 7.43001 12.36C7.42001 12.35 7.4 12.34 7.39 12.33L5.07001 9.32001C4.90001 9.10001 4.94 8.79001 5.16 8.62001C5.38 8.45001 5.69 8.49001 5.86 8.71001L7.79001 11.2L12.01 5.67C12.18 5.45 12.49 5.41 12.71 5.58C12.92 5.74 12.97 6.06 12.8 6.28Z" fill="#1DC79A"/>
</svg>
