<svg width="28" height="28" viewBox="0 0 28 28" fill="none" xmlns="http://www.w3.org/2000/svg">
<circle cx="14" cy="14" r="14" fill="#E9F3FF"/>
<path d="M21.4755 11.2603H21.4091C21.0769 10.0913 20.479 9.14155 19.7483 8.3379C18.6853 7.09589 17.1574 6.29224 15.2308 6.07306C14.965 6.07306 14.7657 6 14.5 6C11.5769 6 8.65386 7.75343 7.59092 11.1872H7.52449C6.12938 11.1872 5 12.4292 5 13.9635V14.1096C5 15.6438 6.12938 16.8858 7.52449 16.8858H7.85665C8.18882 16.8858 8.52099 16.5936 8.52099 16.1553V13.6712C8.65386 9.36073 11.6434 7.38813 14.5 7.38813C14.6993 7.38813 14.8986 7.38813 15.0979 7.38813C16.4266 7.53425 17.6224 8.04566 18.6189 8.99544L18.6853 9.06849C19.7483 10.1644 20.2797 11.7717 20.4126 13.3059C20.4126 13.379 20.4126 13.5251 20.4126 13.5982V14.3288C20.2797 16.5936 19.2168 18.9315 17.0909 19.9543C16.7587 19.2237 16.028 18.7123 15.2308 18.9315H15.0979C14.1678 19.1507 13.5699 20.1005 13.7692 21.1233L13.8357 21.4155C13.8357 21.4155 13.8357 21.4886 13.9021 21.4886C13.9685 21.7808 14.2343 22 14.5 22C16.7588 22 18.6189 21.1233 19.9475 19.4429C20.5455 18.7123 21.0105 17.7626 21.3427 16.8128H21.4755C22.8706 16.8128 24 15.5708 24 14.0365V13.8904C24 12.5023 22.8706 11.2603 21.4755 11.2603Z" fill="#4D71FF"/>
</svg>
