<svg width="24" height="24" viewBox="0 0 24 24" fill="none" xmlns="http://www.w3.org/2000/svg">
<path d="M23.7193 22.3568L18.4228 17.0603C18.4132 17.0507 18.394 17.0411 18.3844 17.0315C19.8813 15.2276 20.7832 12.9151 20.7832 10.3916C20.7832 4.65367 16.1295 0 10.3916 0C4.65367 0 0 4.65367 0 10.3916C0 16.1295 4.65367 20.7832 10.3916 20.7832C12.9151 20.7832 15.2276 19.8813 17.0315 18.3844C17.0411 18.394 17.0411 18.4132 17.0603 18.4228L22.3568 23.7193C22.5487 23.9112 22.7886 23.9976 23.0381 23.9976C23.2876 23.9976 23.5274 23.9016 23.7193 23.7193C24.0936 23.3355 24.0936 22.731 23.7193 22.3568ZM10.4012 18.8546C5.72833 18.8546 1.92863 15.0549 1.92863 10.382C1.92863 5.70915 5.72833 1.90945 10.4012 1.90945C15.0741 1.90945 18.8738 5.70915 18.8738 10.382C18.8642 15.0645 15.0645 18.8546 10.4012 18.8546Z" fill="#A5A9B6"/>
</svg>