<svg width="32" height="32" viewBox="0 0 32 32" fill="none" xmlns="http://www.w3.org/2000/svg">
<g filter="url(#filter0_d_194_3338)">
<path d="M22.9211 17.7908C21.2312 17.7908 19.7445 18.6215 18.8211 19.8954L13.9269 17.5323C14.0746 17.0523 14.1578 16.5354 14.1578 16.0092C14.1578 15.4738 14.0746 14.9662 13.9269 14.4862L18.8211 12.1231C19.7445 13.3969 21.2405 14.2277 22.9211 14.2277C25.7191 14.2277 28 11.9385 28 9.11384C28 6.28922 25.7191 4 22.9211 4C20.1231 4 17.8422 6.28922 17.8422 9.11384C17.8422 9.57538 17.9069 10.0277 18.0269 10.4523L13.0681 12.8431C12.1354 11.6523 10.6949 10.8861 9.07888 10.8861C6.28088 10.8861 4 13.1754 4 16C4 18.8246 6.28088 21.1138 9.07888 21.1138C10.6949 21.1138 12.1354 20.3477 13.0681 19.1569L18.0269 21.5477C17.9069 21.9723 17.8422 22.4246 17.8422 22.8861C17.8422 25.7015 20.1231 28 22.9211 28C25.7191 28 28 25.7108 28 22.8861C28 20.0615 25.7284 17.7908 22.9211 17.7908ZM22.9211 5.86462C24.7033 5.86462 26.1531 7.33231 26.1531 9.13231C26.1531 10.9323 24.7033 12.4 22.9211 12.4C21.1389 12.4 19.6891 10.9323 19.6891 9.13231C19.6891 7.33231 21.1389 5.86462 22.9211 5.86462ZM9.07888 19.2769C7.29665 19.2769 5.84686 17.8092 5.84686 16.0092C5.84686 14.2092 7.29665 12.7415 9.07888 12.7415C10.8611 12.7415 12.3109 14.2092 12.3109 16.0092C12.3109 17.8185 10.8611 19.2769 9.07888 19.2769ZM22.9211 26.1723C21.1389 26.1723 19.6891 24.7046 19.6891 22.9046C19.6891 21.1046 21.1389 19.6369 22.9211 19.6369C24.7033 19.6369 26.1531 21.1046 26.1531 22.9046C26.1531 24.7046 24.7033 26.1723 22.9211 26.1723Z" fill="white"/>
</g>
<defs>
<filter id="filter0_d_194_3338" x="0" y="0" width="32" height="32" filterUnits="userSpaceOnUse" color-interpolation-filters="sRGB">
<feFlood flood-opacity="0" result="BackgroundImageFix"/>
<feColorMatrix in="SourceAlpha" type="matrix" values="0 0 0 0 0 0 0 0 0 0 0 0 0 0 0 0 0 0 127 0" result="hardAlpha"/>
<feOffset/>
<feGaussianBlur stdDeviation="2"/>
<feComposite in2="hardAlpha" operator="out"/>
<feColorMatrix type="matrix" values="0 0 0 0 0 0 0 0 0 0 0 0 0 0 0 0 0 0 0.5 0"/>
<feBlend mode="normal" in2="BackgroundImageFix" result="effect1_dropShadow_194_3338"/>
<feBlend mode="normal" in="SourceGraphic" in2="effect1_dropShadow_194_3338" result="shape"/>
</filter>
</defs>
</svg>
